<svg width="430" height="430" viewBox="0 0 430 430" fill="none" xmlns="http://www.w3.org/2000/svg">
<path d="M101.11 285.77V270.18C101.109 268.131 101.511 266.102 102.295 264.209C103.078 262.315 104.227 260.595 105.676 259.146C107.125 257.697 108.845 256.548 110.739 255.765C112.632 254.981 114.661 254.579 116.71 254.58C118.758 254.58 120.786 254.984 122.678 255.768C124.57 256.552 126.29 257.701 127.737 259.15C129.185 260.599 130.333 262.318 131.116 264.211C131.899 266.104 132.301 268.132 132.3 270.18V285.77" fill="#F24C00"/>
<path d="M297.7 285.77V270.18C297.699 268.132 298.101 266.104 298.884 264.211C299.667 262.318 300.815 260.599 302.263 259.15C303.71 257.701 305.43 256.552 307.322 255.768C309.214 254.984 311.242 254.58 313.29 254.58C315.339 254.579 317.368 254.981 319.261 255.765C321.155 256.548 322.875 257.697 324.324 259.146C325.773 260.595 326.922 262.315 327.705 264.209C328.489 266.102 328.891 268.131 328.89 270.18V285.77" fill="#F24C00"/>
<path d="M349.78 285.77H264.49V262.53C264.49 259.148 263.147 255.905 260.756 253.514C258.365 251.123 255.121 249.78 251.74 249.78H178.26C174.878 249.78 171.635 251.123 169.244 253.514C166.853 255.905 165.51 259.148 165.51 262.53V285.77H80.22C77.0374 285.77 73.9851 287.034 71.7347 289.285C69.4843 291.535 68.22 294.587 68.22 297.77V363.12C68.22 366.302 69.4843 369.355 71.7347 371.605C73.9851 373.856 77.0374 375.12 80.22 375.12H349.78C352.963 375.12 356.015 373.856 358.265 371.605C360.516 369.355 361.78 366.302 361.78 363.12V297.77C361.78 294.587 360.516 291.535 358.265 289.285C356.015 287.034 352.963 285.77 349.78 285.77Z" fill="#fff"/>
<path d="M230.64 147.76H199.36V249.78H230.64V147.76Z" fill="#fff"/>
<g style="mix-blend-mode:multiply" opacity="0.5">
<path d="M215 147.76H199.36V249.78H215V147.76Z" fill="#fff"/>
</g>
<path d="M215 150.38C241.372 150.38 262.75 129.001 262.75 102.63C262.75 76.2583 241.372 54.8799 215 54.8799C188.628 54.8799 167.25 76.2583 167.25 102.63C167.25 129.001 188.628 150.38 215 150.38Z" fill="#F24C00"/>
<g style="mix-blend-mode:multiply" opacity="0.5">
<path d="M182.89 102.63C182.891 91.3223 186.905 80.3821 194.217 71.757C201.529 63.1319 211.665 57.3816 222.82 55.5298C215.981 54.3942 208.977 54.7613 202.295 56.6056C195.612 58.45 189.411 61.7273 184.123 66.2098C178.835 70.6923 174.586 76.2726 171.672 82.5628C168.758 88.853 167.248 95.7023 167.248 102.635C167.248 109.567 168.758 116.417 171.672 122.707C174.586 128.997 178.835 134.577 184.123 139.06C189.411 143.542 195.612 146.82 202.295 148.664C208.977 150.508 215.981 150.875 222.82 149.74C211.665 147.884 201.53 142.131 194.219 133.505C186.907 124.878 182.893 113.938 182.89 102.63Z" fill="#F24C00"/>
</g>
<g style="mix-blend-mode:multiply" opacity="0.5">
<path d="M124.53 256.7C122.161 255.32 119.47 254.59 116.729 254.584C113.988 254.577 111.294 255.293 108.918 256.66C106.542 258.028 104.569 259.998 103.198 262.372C101.827 264.745 101.107 267.439 101.11 270.18V285.77H116.75V270.18C116.75 267.448 117.469 264.764 118.835 262.398C120.2 260.032 122.165 258.067 124.53 256.7Z" fill="#F24C00"/>
</g>
<g style="mix-blend-mode:multiply" opacity="0.5">
<path d="M321.11 256.7C318.742 255.32 316.052 254.589 313.311 254.582C310.57 254.575 307.876 255.291 305.5 256.659C303.125 258.027 301.153 259.997 299.783 262.371C298.414 264.745 297.695 267.439 297.7 270.18V285.77H313.34V270.18C313.34 267.449 314.058 264.766 315.422 262.401C316.785 260.035 318.747 258.069 321.11 256.7Z" fill="#F24C00"/>
</g>
<g style="mix-blend-mode:multiply" opacity="0.5">
<path d="M83.86 363.12V297.77C83.86 294.587 85.1243 291.535 87.3747 289.284C89.6251 287.034 92.6774 285.77 95.86 285.77H80.22C77.0374 285.77 73.9851 287.034 71.7347 289.284C69.4843 291.535 68.22 294.587 68.22 297.77V363.12C68.22 366.302 69.4843 369.354 71.7347 371.605C73.9851 373.855 77.0374 375.12 80.22 375.12H95.86C92.6774 375.12 89.6251 373.855 87.3747 371.605C85.1243 369.354 83.86 366.302 83.86 363.12Z" fill="#fff"/>
</g>
<g style="mix-blend-mode:multiply" opacity="0.5">
<path d="M181.15 262.53C181.15 259.148 182.493 255.905 184.884 253.514C187.275 251.123 190.518 249.78 193.9 249.78H178.26C174.878 249.78 171.635 251.123 169.244 253.514C166.853 255.905 165.51 259.148 165.51 262.53V285.77H181.15V262.53Z" fill="#fff"/>
</g>
</svg>
