<svg width="430" height="430" viewBox="0 0 430 430" fill="none" xmlns="http://www.w3.org/2000/svg">
<circle cx="190" cy="190.5" r="145" fill="#4BB3FD"/>
<g style="mix-blend-mode:multiply" opacity="0.5">
<path d="M296.935 288.428C274.637 302.413 248.263 310.499 220 310.499C139.919 310.499 75 245.581 75 165.499C75 127.75 89.4255 93.3695 113.065 67.5703C72.1818 93.211 45 138.681 45 190.499C45 270.581 109.919 335.499 190 335.499C232.332 335.499 270.427 317.359 296.935 288.428Z" fill="#4BB3FD"/>
</g>
<circle cx="190" cy="190.5" r="137.5" stroke="#EBE6EF" stroke-width="15"/>
<circle cx="190" cy="190.5" r="145" stroke="#121331" stroke-width="7"/>
<path d="M293.003 294.5L372.503 374" stroke="#121331" stroke-width="7" stroke-linecap="round"/>
<rect x="302.503" y="332.285" width="40" height="85" rx="10" transform="rotate(-45 302.503 332.285)" fill="#B26836"/>
<rect x="302.503" y="332.285" width="40" height="85" rx="10" transform="rotate(-45 302.503 332.285)" stroke="#121331" stroke-width="7"/>
</svg>
