<svg fill="none" height="49" viewBox="0 0 48 49" width="48" xmlns="http://www.w3.org/2000/svg"><path d="m0 0h48v48h-48z" fill="#feee" fill-opacity=".01"/><path d="m16.9963 7.68583c.7265 0 1.3959.39402 1.7486 1.02926l2.4464 4.40681c.3203.577.3354 1.2749.0402 1.8652l-2.3568 4.7137s.683 3.5114 3.5414 6.3698c2.8585 2.8584 6.3581 3.5296 6.3581 3.5296l4.7129-2.3564c.5907-.2954 1.2891-.2801 1.8663.0408l4.4193 2.457c.6347.3529 1.0282 1.0219 1.0282 1.748v5.0735c0 2.5837-2.3999 4.4498-4.8479 3.6237-5.028-1.6965-12.8327-4.9267-17.7795-9.8736-4.9468-4.9468-8.17707-12.7515-9.87361-17.7794-.82602-2.4481 1.04007-4.84797 3.62371-4.84797z" fill="#fff" stroke="#feee" stroke-linejoin="round" stroke-width="4"/></svg>